<?xml version="1.0" encoding="utf-8"?>
<!-- Generator: Adobe Illustrator 22.0.1, SVG Export Plug-In . SVG Version: 6.00 Build 0)  -->
<svg version="1.1" xmlns="http://www.w3.org/2000/svg" xmlns:xlink="http://www.w3.org/1999/xlink" x="0px" y="0px"
	 viewBox="0 0 1024 446.1" style="enable-background:new 0 0 1024 446.1;" xml:space="preserve">
<g id="Spot_2_">
	<line class="st0_" x1="102" y1="115" x2="102" y2="386"/>
	<g>
		<circle class="st1" cx="102" cy="250" r="20"/>
		<path class="st0" d="M102,232c9.9,0,18,8.1,18,18s-8.1,18-18,18s-18-8.1-18-18S92.1,232,102,232 M102,228c-12.2,0-22,9.8-22,22
			s9.8,22,22,22s22-9.8,22-22S114.2,228,102,228L102,228z"/>
	</g>
	<g>
		<circle class="st1" cx="102" cy="385" r="20"/>
		<path class="st0" d="M102,367c9.9,0,18,8.1,18,18s-8.1,18-18,18s-18-8.1-18-18S92.1,367,102,367 M102,363c-12.2,0-22,9.8-22,22
			s9.8,22,22,22s22-9.8,22-22S114.2,363,102,363L102,363z"/>
	</g>
	<g>
		<circle class="st1" cx="102" cy="115" r="20"/>
		<path class="st0" d="M102,97c9.9,0,18,8.1,18,18s-8.1,18-18,18s-18-8.1-18-18S92.1,97,102,97 M102,93c-12.2,0-22,9.8-22,22
			s9.8,22,22,22s22-9.8,22-22S114.2,93,102,93L102,93z"/>
	</g>
	<line class="st3" x1="102" y1="115" x2="102" y2="386"/>
	<g>
		<circle cx="102" cy="115" r="12"/>
	</g>
	<g>
		<circle cx="102" cy="250" r="12"/>
	</g>
	<g>
		<circle cx="102" cy="385" r="12"/>
	</g>
</g>
<g id="Text">
	<rect x="141.4" y="96.4" class="st4" width="217.3" height="66.6"/>
	<text transform="matrix(1 0 0 1 141.3828 106.3462)"><tspan x="0" y="0" class="st0 st5 st6">Middle School </tspan><tspan x="89.5" y="0" class="st0 st7 st6">(2011 – 2014)</tspan><tspan x="0" y="16.8" class="st0 st7 st6">Bundesgymnasium Nonntal, Austria</tspan><tspan x="0" y="33.6" class="st0 st7 st6">Orientation: </tspan><tspan x="73.8" y="33.6" class="st1 st7 st6">Languages</tspan></text>
	<rect x="141.4" y="221.4" class="st4" width="217.3" height="68.6"/>
	<text transform="matrix(1 0 0 1 141.3828 231.3462)"><tspan x="0" y="0" class="st0 st5 st6">High School </tspan><tspan x="76.4" y="0" class="st0 st7 st6">(2014 – 2019)</tspan><tspan x="0" y="16.8" class="st0 st7 st6">HTBLuVa Salzburg, Austria</tspan><tspan x="0" y="33.6" class="st0 st7 st6">Orientation: </tspan><tspan x="73.8" y="33.6" class="st1 st7 st6">Media and Design, </tspan><tspan x="0" y="50.4" class="st1 st7 st6">Multimedia Design</tspan></text>
	<rect x="141.4" y="360.4" class="st4" width="258.6" height="54.6"/>
	<text transform="matrix(1 0 0 1 141.3828 370.3462)"><tspan x="0" y="0" class="st0 st5 st6">Bachelor </tspan><tspan x="58" y="0" class="st0 st7 st6">(2019 – Present)</tspan><tspan x="0" y="16.8" class="st0 st7 st6">The Hague University of Applied Sciences </tspan><tspan x="0" y="33.6" class="st0 st7 st6">Orientation: </tspan><tspan x="73.8" y="33.6" class="st1 st7 st6">User Experience Design</tspan></text>
</g>
<g id="Spot_1_">
	<line class="st0_" x1="885" y1="114" x2="885" y2="385"/>
	<g>
		<circle class="st1" cx="885" cy="249" r="20"/>
		<path class="st0" d="M885,231c9.9,0,18,8.1,18,18s-8.1,18-18,18s-18-8.1-18-18S875.1,231,885,231 M885,227c-12.2,0-22,9.8-22,22
			s9.8,22,22,22s22-9.8,22-22S897.2,227,885,227L885,227z"/>
	</g>
	<g>
		<circle class="st1" cx="885" cy="384" r="20"/>
		<path class="st0" d="M885,366c9.9,0,18,8.1,18,18s-8.1,18-18,18s-18-8.1-18-18S875.1,366,885,366 M885,362c-12.2,0-22,9.8-22,22
			s9.8,22,22,22s22-9.8,22-22S897.2,362,885,362L885,362z"/>
	</g>
	<g>
		<circle class="st1" cx="885" cy="114" r="20"/>
		<path class="st0" d="M885,96c9.9,0,18,8.1,18,18s-8.1,18-18,18s-18-8.1-18-18S875.1,96,885,96 M885,92c-12.2,0-22,9.8-22,22
			s9.8,22,22,22s22-9.8,22-22S897.2,92,885,92L885,92z"/>
	</g>
	<line class="st3" x1="885" y1="114" x2="885" y2="385"/>
	<g>
		<circle cx="885" cy="114" r="12"/>
	</g>
	<g>
		<circle cx="885" cy="249" r="12"/>
	</g>
	<g>
		<circle cx="885" cy="384" r="12"/>
	</g>
</g>
<g id="Text_1_">
	<rect x="632.4" y="105.4" class="st4" width="217.3" height="66.6"/>
	<text transform="matrix(1 0 0 1 664.501 115.3462)"><tspan x="0" y="0" class="st0 st5 st6">Graphic Designer </tspan><tspan x="108.7" y="0" class="st0 st7 st6">(2015 – 2017)</tspan><tspan x="-6.9" y="16.8" class="st0 st7 st6">Kuirarto X&amp;L, Restaurant, Austria</tspan></text>
	<rect x="632.4" y="230.4" class="st4" width="217.3" height="68.6"/>
	<text transform="matrix(1 0 0 1 642.4238 240.3462)"><tspan x="0" y="0" class="st0 st5 st6">Multimedia Designer </tspan><tspan x="130.8" y="0" class="st0 st7 st6">(2017 – 2018)</tspan><tspan x="7.9" y="16.8" class="st0 st7 st6">Akzente Salzburg, Youth Initiative, </tspan><tspan x="166.1" y="33.6" class="st0 st7 st6">Austria</tspan></text>
	<rect x="622.4" y="369.4" class="st4" width="227.6" height="54.6"/>
	<text transform="matrix(1 0 0 1 667.6948 379.3462)"><tspan x="0" y="0" class="st0 st5 st6">Graphic Designer</tspan><tspan x="105.8" y="0" class="st0 st7 st6">(2018 – 2019)</tspan><tspan x="-2.9" y="16.8" class="st0 st7 st6">Ichigo Ichie, Restaurant, Austria</tspan></text>
</g>
</svg>
