<?xml version="1.0" encoding="utf-8"?>
<!-- Generator: Adobe Illustrator 22.0.1, SVG Export Plug-In . SVG Version: 6.00 Build 0)  -->
<svg version="1.1" xmlns="http://www.w3.org/2000/svg" xmlns:xlink="http://www.w3.org/1999/xlink" x="0px" y="0px"
	 viewBox="0 0 1024 768" style="enable-background:new 0 0 1024 768;" xml:space="preserve">
<g id="Spot">
	<line class="st0_" x1="196" y1="115" x2="196" y2="386"/>
	<g>
		<circle class="st1" cx="196" cy="250" r="20"/>
		<path class="st0" d="M196,232c9.9,0,18,8.1,18,18s-8.1,18-18,18s-18-8.1-18-18S186.1,232,196,232 M196,228c-12.2,0-22,9.8-22,22
			s9.8,22,22,22s22-9.8,22-22S208.2,228,196,228L196,228z"/>
	</g>
	<g>
		<circle class="st1" cx="196" cy="385" r="20"/>
		<path class="st0" d="M196,367c9.9,0,18,8.1,18,18s-8.1,18-18,18s-18-8.1-18-18S186.1,367,196,367 M196,363c-12.2,0-22,9.8-22,22
			s9.8,22,22,22s22-9.8,22-22S208.2,363,196,363L196,363z"/>
	</g>
	<g>
		<circle class="st1" cx="196" cy="115" r="20"/>
		<path class="st0" d="M196,97c9.9,0,18,8.1,18,18s-8.1,18-18,18s-18-8.1-18-18S186.1,97,196,97 M196,93c-12.2,0-22,9.8-22,22
			s9.8,22,22,22s22-9.8,22-22S208.2,93,196,93L196,93z"/>
	</g>
	<line class="st3" x1="196" y1="115" x2="196" y2="386"/>
	<g>
		<circle cx="196" cy="115" r="12"/>
	</g>
	<g>
		<circle cx="196" cy="250" r="12"/>
	</g>
	<g>
		<circle cx="196" cy="385" r="12"/>
	</g>
</g>
<g id="Text">
	<rect x="235.4" y="96.4" class="st4" width="217.3" height="50.6"/>
	<text transform="matrix(1 0 0 1 235.3828 106.1924)"><tspan x="0" y="0" class="st0 st5 st6">Middle School</tspan><tspan x="0" y="16.8" class="st0 st7 st6">Bundesgymnasium Nonntal, Austria</tspan><tspan x="0" y="33.6" class="st0 st7 st6">Orientation: </tspan><tspan x="73.8" y="33.6" class="st1 st7 st6">Languages</tspan></text>
	<rect x="235.4" y="221.4" class="st4" width="217.3" height="68.6"/>
	<text transform="matrix(1 0 0 1 235.3828 231.1924)"><tspan x="0" y="0" class="st0 st5 st6">High School</tspan><tspan x="0" y="16.8" class="st0 st7 st6">HTBLuVa Salzburg, Austria</tspan><tspan x="0" y="33.6" class="st0 st7 st6">Orientation: </tspan><tspan x="73.8" y="33.6" class="st1 st7 st6">Media and Design, </tspan><tspan x="0" y="50.4" class="st1 st7 st6">Multimedia Design</tspan></text>
	<rect x="235.4" y="360.4" class="st4" width="258.6" height="54.6"/>
	<text transform="matrix(1 0 0 1 235.3828 370.1924)"><tspan x="0" y="0" class="st0 st5 st6">Bachelor</tspan><tspan x="0" y="16.8" class="st0 st7 st6">The Hague University of Applied Sciences </tspan><tspan x="0" y="33.6" class="st0 st7 st6">Orientation: </tspan><tspan x="73.8" y="33.6" class="st1 st7 st6">User Experience Design</tspan></text>
</g>
</svg>
