<?xml version="1.0" encoding="utf-8"?>
<!-- Generator: Adobe Illustrator 22.0.1, SVG Export Plug-In . SVG Version: 6.00 Build 0)  -->
<svg version="1.1" id="Capa_1" xmlns="http://www.w3.org/2000/svg" xmlns:xlink="http://www.w3.org/1999/xlink" x="0px" y="0px"
	 viewBox="0 0 512 512" style="enable-background:new 0 0 512 512;" xml:space="preserve">
<style type="text/css">
	.st0{fill:#FFFFFF;}
	.st1{fill:#FFE46E;}
</style>
<circle class="st0" cx="254" cy="250.1" r="164"/>
<path class="st1" d="M187.6,156.7c-14,0-23.2,9.2-23.2,21.3c0,11.8,8.9,21.3,22.7,21.3h0.3c14.3,0,23.2-9.5,23.2-21.3
	C210.3,165.9,201.6,156.7,187.6,156.7z"/>
<path class="st1" d="M166.8,216.2h41v123.4h-41V216.2z"/>
<path class="st1" d="M308.5,213.3c-22.1,0-37,20.8-37,20.8v-17.9h-41v123.4h41v-68.9c0-3.7,0.3-7.4,1.4-10c3-7.4,9.7-15,21.1-15
	c14.8,0,20.8,11.3,20.8,27.9v66h41v-70.8C355.8,230.9,335.5,213.3,308.5,213.3z"/>
</svg>
