<?xml version="1.0" encoding="utf-8"?>
<!-- Generator: Adobe Illustrator 22.0.1, SVG Export Plug-In . SVG Version: 6.00 Build 0)  -->
<svg version="1.1" id="Capa_1" xmlns="http://www.w3.org/2000/svg" xmlns:xlink="http://www.w3.org/1999/xlink" x="0px" y="0px"
	 viewBox="0 0 512 512" style="enable-background:new 0 0 512 512;" xml:space="preserve">
<style type="text/css">
	.st0{fill:#FFFFFF;}
	.st1{fill:#FFE46E;}
</style>
<circle class="st0" cx="253.5" cy="250.5" r="163.5"/>
		<path class="st1" d="M348.9,166H162.8c-3,0-6,0.8-8.5,2L255.4,269l22.7-21.8l0,0l0,0l79.3-79.3C354.9,166.8,351.9,166,348.9,166z"
			/>
		<path class="st1" d="M366.8,177.4L292.1,252l74.6,74.6c1.2-2.6,2-5.5,2-8.5V185.9C368.7,182.8,368,180,366.8,177.4z"/>

		<path class="st1" d="M145,177.4c-1.2,2.6-2,5.5-2,8.5v132.2c0,3,0.8,6,2,8.5l74.6-74.6L145,177.4z"/>

		<path class="st1" d="M282.8,261.4l-22.7,21.8c-1.3,1.3-3,2-4.7,2s-3.4-0.7-4.7-2L229,261.4L154.3,336c2.6,1.2,5.5,2,8.5,2h186.1
			c3,0,6-0.8,8.5-2L282.8,261.4z"/>
</svg>
