<?xml version="1.0" encoding="utf-8"?>
<!-- Generator: Adobe Illustrator 22.0.1, SVG Export Plug-In . SVG Version: 6.00 Build 0)  -->
<svg version="1.1" id="Capa_1" xmlns="http://www.w3.org/2000/svg" xmlns:xlink="http://www.w3.org/1999/xlink" x="0px" y="0px"
	 viewBox="0 0 512 512" style="enable-background:new 0 0 512 512;" xml:space="preserve">
<style type="text/css">
	.st0{fill:#FFFFFF;}
	.st1{fill:#FFE46E;}
</style>
<circle class="st0" cx="253.5" cy="250.5" r="163.5"/>
		<path class="st1" d="M323.7,294.6c-10.7-1.6-20.8-5-30.2-9.9c-4.6-2.5-10.8-1.8-14.3,0.9l-21.9,12.4
			c-20.8-16.1-32.5-32.9-40.8-58.2l17.4-17.7c4.3-3.3,6.5-8.8,5.7-14.4c-1.7-10.9-1.7-22.1,0-33.2c1.2-8-4-15.5-11.7-16.7l-32-4.9
			c-7.7-1.2-15,4.4-16.2,12.5c-14.1,92.2,46.2,178.2,134.5,191.7c7.7,1.2,15-4.4,16.2-12.5l5.1-33.3
			C336.6,303.3,331.4,295.8,323.7,294.6z"/>
</svg>
